<?xml version="1.0" encoding="utf-8"?>
<!-- Generator: Adobe Illustrator 23.0.3, SVG Export Plug-In . SVG Version: 6.00 Build 0)  -->
<svg version="1.1" id="Camada_1" xmlns="http://www.w3.org/2000/svg" xmlns:xlink="http://www.w3.org/1999/xlink" x="0px" y="0px"
	 viewBox="0 0 320 205" style="enable-background:new 0 0 320 205;" xml:space="preserve">
<style type="text/css">
	.st0{fill:#15A04B;}
	.st1{fill:none;stroke:#062417;stroke-width:5;}
	.st2{fill:#092E17;}
	.st3{fill:#004425;}
</style>
<rect class="st0" width="320" height="205"/>
<ellipse class="st0" cx="45.5" cy="198.6" rx="42.5" ry="42.1"/>
<ellipse class="st1" cx="45.5" cy="198.6" rx="40" ry="39.6"/>
<ellipse class="st2" cx="316.5" cy="65.9" rx="79.5" ry="78.7"/>
<g>
	<circle class="st3" cx="60.4" cy="-12.1" r="4.7"/>
	<circle class="st3" cx="60.4" cy="12" r="4.7"/>
	<circle class="st3" cx="60.4" cy="36" r="4.7"/>
	<circle class="st3" cx="60.4" cy="60.1" r="4.7"/>
	<circle class="st3" cx="-36.7" cy="-12.1" r="4.7"/>
	<circle class="st3" cx="-36.7" cy="12" r="4.7"/>
	<circle class="st3" cx="-36.7" cy="36" r="4.7"/>
	<circle class="st3" cx="-36.7" cy="60.1" r="4.7"/>
	<circle class="st3" cx="11.8" cy="-12.1" r="4.7"/>
	<circle class="st3" cx="11.8" cy="12" r="4.7"/>
	<circle class="st3" cx="11.8" cy="36" r="4.7"/>
	<circle class="st3" cx="11.8" cy="60.1" r="4.7"/>
	<circle class="st3" cx="36.1" cy="-12.1" r="4.7"/>
	<circle class="st3" cx="36.1" cy="12" r="4.7"/>
	<circle class="st3" cx="36.1" cy="36" r="4.7"/>
	<circle class="st3" cx="36.1" cy="60.1" r="4.7"/>
	<circle class="st3" cx="-12.5" cy="-12.1" r="4.7"/>
	<circle class="st3" cx="-12.5" cy="12" r="4.7"/>
	<circle class="st3" cx="-12.5" cy="36" r="4.7"/>
	<circle class="st3" cx="-12.5" cy="60.1" r="4.7"/>
	<circle class="st3" cx="181.5" cy="-12.1" r="4.7"/>
	<circle class="st3" cx="181.5" cy="12" r="4.7"/>
	<circle class="st3" cx="181.5" cy="36" r="4.7"/>
	<circle class="st3" cx="181.5" cy="60.1" r="4.7"/>
	<circle class="st3" cx="84.4" cy="-12.1" r="4.7"/>
	<circle class="st3" cx="84.4" cy="12" r="4.7"/>
	<circle class="st3" cx="84.4" cy="36" r="4.7"/>
	<circle class="st3" cx="84.4" cy="60.1" r="4.7"/>
	<circle class="st3" cx="132.9" cy="-12.1" r="4.7"/>
	<circle class="st3" cx="132.9" cy="12" r="4.7"/>
	<circle class="st3" cx="132.9" cy="36" r="4.7"/>
	<circle class="st3" cx="132.9" cy="60.1" r="4.7"/>
	<circle class="st3" cx="157.2" cy="-12.1" r="4.7"/>
	<circle class="st3" cx="157.2" cy="12" r="4.7"/>
	<circle class="st3" cx="157.2" cy="36" r="4.7"/>
	<circle class="st3" cx="157.2" cy="60.1" r="4.7"/>
	<circle class="st3" cx="108.6" cy="-12.1" r="4.7"/>
	<circle class="st3" cx="108.6" cy="12" r="4.7"/>
	<circle class="st3" cx="108.6" cy="36" r="4.7"/>
	<circle class="st3" cx="108.6" cy="60.1" r="4.7"/>
</g>
</svg>
