<?xml version="1.0" encoding="utf-8"?>
<!-- Generator: Adobe Illustrator 23.0.3, SVG Export Plug-In . SVG Version: 6.00 Build 0)  -->
<svg version="1.1" id="Camada_1" xmlns="http://www.w3.org/2000/svg" xmlns:xlink="http://www.w3.org/1999/xlink" x="0px" y="0px"
	 viewBox="0 0 1366 519" style="enable-background:new 0 0 1366 519;" xml:space="preserve">
<style type="text/css">
	.st0{fill:#007841;}
	.st1{fill:#FDFFFE;}
	.st2{fill:#15A04B;}
</style>
<ellipse class="st0" cx="1231.8" cy="386" rx="134.2" ry="133"/>
<g transform="translate(-75.366 8.745)">
	<g transform="translate(0.09 -11)">
		<circle class="st1" cx="716.6" cy="162.6" r="5"/>
		<circle class="st1" cx="691.3" cy="162.6" r="5"/>
		<circle class="st1" cx="665.9" cy="162.6" r="5"/>
		<circle class="st1" cx="640.6" cy="162.6" r="5"/>
		<circle class="st1" cx="716.6" cy="60.3" r="5"/>
		<circle class="st1" cx="691.3" cy="60.3" r="5"/>
		<circle class="st1" cx="665.9" cy="60.3" r="5"/>
		<circle class="st1" cx="640.6" cy="60.3" r="5"/>
		<circle class="st1" cx="716.6" cy="111.4" r="5"/>
		<circle class="st1" cx="691.3" cy="111.4" r="5"/>
		<circle class="st1" cx="665.9" cy="111.4" r="5"/>
		<circle class="st1" cx="640.6" cy="111.4" r="5"/>
		<circle class="st1" cx="716.6" cy="137" r="5"/>
		<circle class="st1" cx="691.3" cy="137" r="5"/>
		<circle class="st1" cx="665.9" cy="137" r="5"/>
		<circle class="st1" cx="640.6" cy="137" r="5"/>
		<circle class="st1" cx="716.6" cy="85.9" r="5"/>
		<circle class="st1" cx="691.3" cy="85.9" r="5"/>
		<circle class="st1" cx="665.9" cy="85.9" r="5"/>
		<circle class="st1" cx="640.6" cy="85.9" r="5"/>
		<g transform="translate(196.412)">
			<circle class="st1" cx="520.2" cy="290.2" r="5"/>
			<circle class="st1" cx="494.9" cy="290.2" r="5"/>
			<circle class="st1" cx="469.5" cy="290.2" r="5"/>
			<circle class="st1" cx="444.2" cy="290.2" r="5"/>
			<circle class="st1" cx="520.2" cy="187.9" r="5"/>
			<circle class="st1" cx="494.9" cy="187.9" r="5"/>
			<circle class="st1" cx="469.5" cy="187.9" r="5"/>
			<circle class="st1" cx="444.2" cy="187.9" r="5"/>
			<circle class="st1" cx="520.2" cy="239" r="5"/>
			<circle class="st1" cx="494.9" cy="239" r="5"/>
			<circle class="st1" cx="469.5" cy="239" r="5"/>
			<circle class="st1" cx="444.2" cy="239" r="5"/>
			<circle class="st1" cx="520.2" cy="264.6" r="5"/>
			<circle class="st1" cx="494.9" cy="264.6" r="5"/>
			<circle class="st1" cx="469.5" cy="264.6" r="5"/>
			<circle class="st1" cx="444.2" cy="264.6" r="5"/>
			<circle class="st1" cx="520.2" cy="213.4" r="5"/>
			<circle class="st1" cx="494.9" cy="213.4" r="5"/>
			<circle class="st1" cx="469.5" cy="213.4" r="5"/>
			<circle class="st1" cx="444.2" cy="213.4" r="5"/>
		</g>
	</g>
</g>
<path class="st2" d="M315.8,511.5H111.5V310.4h204.3V511.5z M116.5,506.5h194.3V315.4H116.5V506.5z"/>
</svg>
