<?xml version="1.0" encoding="utf-8"?>
<!-- Generator: Adobe Illustrator 23.0.3, SVG Export Plug-In . SVG Version: 6.00 Build 0)  -->
<svg version="1.1" id="Camada_1" xmlns="http://www.w3.org/2000/svg" xmlns:xlink="http://www.w3.org/1999/xlink" x="0px" y="0px"
	 viewBox="0 0 1366 519" style="enable-background:new 0 0 1366 519;" xml:space="preserve">
<style type="text/css">
	.st0{fill:none;}
	.st1{fill:none;stroke:#15A04B;stroke-width:5;}
	.st2{fill:#15A04B;}
	.st3{fill:#004425;}
</style>
<g transform="translate(195 257.49)">
	<ellipse class="st0" cx="133.5" cy="225.1" rx="133.5" ry="133.1"/>
	<ellipse class="st1" cx="133.5" cy="225.1" rx="131" ry="130.6"/>
</g>
<ellipse class="st2" cx="1312.3" cy="176.8" rx="176.5" ry="174.8"/>
<g transform="translate(-75.366 8.745)">
	<g transform="translate(0.09 -11)">
		<circle class="st3" cx="182.6" cy="72.9" r="5"/>
		<circle class="st3" cx="182.6" cy="98.2" r="5"/>
		<circle class="st3" cx="182.6" cy="123.6" r="5"/>
		<circle class="st3" cx="182.6" cy="148.9" r="5"/>
		<circle class="st3" cx="80.3" cy="72.9" r="5"/>
		<circle class="st3" cx="80.3" cy="98.2" r="5"/>
		<circle class="st3" cx="80.3" cy="123.6" r="5"/>
		<circle class="st3" cx="80.3" cy="148.9" r="5"/>
		<circle class="st3" cx="131.4" cy="72.9" r="5"/>
		<circle class="st3" cx="131.4" cy="98.2" r="5"/>
		<circle class="st3" cx="131.4" cy="123.6" r="5"/>
		<circle class="st3" cx="131.4" cy="148.9" r="5"/>
		<circle class="st3" cx="157" cy="72.9" r="5"/>
		<circle class="st3" cx="157" cy="98.2" r="5"/>
		<circle class="st3" cx="157" cy="123.6" r="5"/>
		<circle class="st3" cx="157" cy="148.9" r="5"/>
		<circle class="st3" cx="105.9" cy="72.9" r="5"/>
		<circle class="st3" cx="105.9" cy="98.2" r="5"/>
		<circle class="st3" cx="105.9" cy="123.6" r="5"/>
		<circle class="st3" cx="105.9" cy="148.9" r="5"/>
		<g transform="translate(196.412)">
			<circle class="st3" cx="113.8" cy="72.9" r="5"/>
			<circle class="st3" cx="113.8" cy="98.2" r="5"/>
			<circle class="st3" cx="113.8" cy="123.6" r="5"/>
			<circle class="st3" cx="113.8" cy="148.9" r="5"/>
			<circle class="st3" cx="11.5" cy="72.9" r="5"/>
			<circle class="st3" cx="11.5" cy="98.2" r="5"/>
			<circle class="st3" cx="11.5" cy="123.6" r="5"/>
			<circle class="st3" cx="11.5" cy="148.9" r="5"/>
			<circle class="st3" cx="62.6" cy="72.9" r="5"/>
			<circle class="st3" cx="62.6" cy="98.2" r="5"/>
			<circle class="st3" cx="62.6" cy="123.6" r="5"/>
			<circle class="st3" cx="62.6" cy="148.9" r="5"/>
			<circle class="st3" cx="88.2" cy="72.9" r="5"/>
			<circle class="st3" cx="88.2" cy="98.2" r="5"/>
			<circle class="st3" cx="88.2" cy="123.6" r="5"/>
			<circle class="st3" cx="88.2" cy="148.9" r="5"/>
			<circle class="st3" cx="37" cy="72.9" r="5"/>
			<circle class="st3" cx="37" cy="98.2" r="5"/>
			<circle class="st3" cx="37" cy="123.6" r="5"/>
			<circle class="st3" cx="37" cy="148.9" r="5"/>
		</g>
	</g>
</g>
</svg>
