<?xml version="1.0" encoding="utf-8"?>
<!-- Generator: Adobe Illustrator 23.0.3, SVG Export Plug-In . SVG Version: 6.00 Build 0)  -->
<svg version="1.1" id="Camada_1" xmlns="http://www.w3.org/2000/svg" xmlns:xlink="http://www.w3.org/1999/xlink" x="0px" y="0px"
	 viewBox="0 0 1366 519" style="enable-background:new 0 0 1366 519;" xml:space="preserve">
<style type="text/css">
	.st0{fill:none;}
	.st1{fill:none;stroke:#15A04B;stroke-width:5;}
	.st2{fill:#007841;}
	.st3{fill:#004425;}
</style>
<g transform="translate(195 257.49)">
	<ellipse class="st0" cx="-328.7" cy="141.6" rx="169.3" ry="168.8"/>
	<ellipse class="st1" cx="-328.7" cy="141.6" rx="166.1" ry="165.6"/>
</g>
<ellipse class="st2" cx="1122.9" cy="-136.1" rx="183.1" ry="181.4"/>
<g transform="translate(-75.366 8.745)">
	<g transform="translate(0.09 -11)">
		<circle class="st3" cx="510.9" cy="7.3" r="5"/>
		<circle class="st3" cx="510.9" cy="32.6" r="5"/>
		<circle class="st3" cx="510.9" cy="58" r="5"/>
		<circle class="st3" cx="510.9" cy="83.3" r="5"/>
		<circle class="st3" cx="408.6" cy="7.3" r="5"/>
		<circle class="st3" cx="408.6" cy="32.6" r="5"/>
		<circle class="st3" cx="408.6" cy="58" r="5"/>
		<circle class="st3" cx="408.6" cy="83.3" r="5"/>
		<circle class="st3" cx="459.7" cy="7.3" r="5"/>
		<circle class="st3" cx="459.7" cy="32.6" r="5"/>
		<circle class="st3" cx="459.7" cy="58" r="5"/>
		<circle class="st3" cx="459.7" cy="83.3" r="5"/>
		<circle class="st3" cx="485.3" cy="7.3" r="5"/>
		<circle class="st3" cx="485.3" cy="32.6" r="5"/>
		<circle class="st3" cx="485.3" cy="58" r="5"/>
		<circle class="st3" cx="485.3" cy="83.3" r="5"/>
		<circle class="st3" cx="434.2" cy="7.3" r="5"/>
		<circle class="st3" cx="434.2" cy="32.6" r="5"/>
		<circle class="st3" cx="434.2" cy="58" r="5"/>
		<circle class="st3" cx="434.2" cy="83.3" r="5"/>
		<g transform="translate(196.412)">
			<circle class="st3" cx="442.1" cy="7.3" r="5"/>
			<circle class="st3" cx="442.1" cy="32.6" r="5"/>
			<circle class="st3" cx="442.1" cy="58" r="5"/>
			<circle class="st3" cx="442.1" cy="83.3" r="5"/>
			<circle class="st3" cx="339.8" cy="7.3" r="5"/>
			<circle class="st3" cx="339.8" cy="32.6" r="5"/>
			<circle class="st3" cx="339.8" cy="58" r="5"/>
			<circle class="st3" cx="339.8" cy="83.3" r="5"/>
			<circle class="st3" cx="390.9" cy="7.3" r="5"/>
			<circle class="st3" cx="390.9" cy="32.6" r="5"/>
			<circle class="st3" cx="390.9" cy="58" r="5"/>
			<circle class="st3" cx="390.9" cy="83.3" r="5"/>
			<circle class="st3" cx="416.5" cy="7.3" r="5"/>
			<circle class="st3" cx="416.5" cy="32.6" r="5"/>
			<circle class="st3" cx="416.5" cy="58" r="5"/>
			<circle class="st3" cx="416.5" cy="83.3" r="5"/>
			<circle class="st3" cx="365.3" cy="7.3" r="5"/>
			<circle class="st3" cx="365.3" cy="32.6" r="5"/>
			<circle class="st3" cx="365.3" cy="58" r="5"/>
			<circle class="st3" cx="365.3" cy="83.3" r="5"/>
		</g>
	</g>
</g>
</svg>
