<svg xmlns="http://www.w3.org/2000/svg" xmlns:xlink="http://www.w3.org/1999/xlink" width="288" height="464" viewBox="0 0 288 464"><defs><clipPath id="b"><rect width="288" height="464"/></clipPath></defs><g id="a" clip-path="url(#b)"><g transform="translate(-72.412 12.616)" fill="none" stroke="#092e17" stroke-width="5"><ellipse cx="46.103" cy="45.356" rx="46.103" ry="45.356" stroke="none"/><ellipse cx="46.103" cy="45.356" rx="43.603" ry="42.856" fill="none"/></g><g transform="translate(-5964.608 -12142.823)"><circle cx="5.214" cy="5.214" r="5.214" transform="translate(6198 12290)" fill="#092e17"/><circle cx="5.214" cy="5.214" r="5.214" transform="translate(6198 12435.991)" fill="#092e17"/><circle cx="5.214" cy="5.214" r="5.214" transform="translate(6198 12362.995)" fill="#092e17"/><circle cx="5.214" cy="5.214" r="5.214" transform="translate(6198 12508.986)" fill="#092e17"/><circle cx="5.214" cy="5.214" r="5.214" transform="translate(6198 12326.498)" fill="#092e17"/><circle cx="5.214" cy="5.214" r="5.214" transform="translate(6198 12472.489)" fill="#092e17"/><circle cx="5.214" cy="5.214" r="5.214" transform="translate(6198 12399.493)" fill="#092e17"/><circle cx="5.214" cy="5.214" r="5.214" transform="translate(6198 12545.484)" fill="#092e17"/><circle cx="5.214" cy="5.214" r="5.214" transform="translate(6198 12308.249)" fill="#092e17"/><circle cx="5.214" cy="5.214" r="5.214" transform="translate(6198 12454.24)" fill="#092e17"/><circle cx="5.214" cy="5.214" r="5.214" transform="translate(6198 12381.244)" fill="#092e17"/><circle cx="5.214" cy="5.214" r="5.214" transform="translate(6198 12527.235)" fill="#092e17"/><circle cx="5.214" cy="5.214" r="5.214" transform="translate(6198 12344.748)" fill="#092e17"/><circle cx="5.214" cy="5.214" r="5.214" transform="translate(6198 12490.739)" fill="#092e17"/><circle cx="5.214" cy="5.214" r="5.214" transform="translate(6198 12417.743)" fill="#092e17"/><circle cx="5.214" cy="5.214" r="5.214" transform="translate(6198 12563.734)" fill="#092e17"/><circle cx="5.214" cy="5.214" r="5.214" transform="translate(6234.498 12290)" fill="#092e17"/><circle cx="5.214" cy="5.214" r="5.214" transform="translate(6234.498 12435.991)" fill="#092e17"/><circle cx="5.214" cy="5.214" r="5.214" transform="translate(6234.498 12362.995)" fill="#092e17"/><circle cx="5.214" cy="5.214" r="5.214" transform="translate(6234.498 12508.986)" fill="#092e17"/><circle cx="5.214" cy="5.214" r="5.214" transform="translate(6234.498 12326.498)" fill="#092e17"/><circle cx="5.214" cy="5.214" r="5.214" transform="translate(6234.498 12472.489)" fill="#092e17"/><circle cx="5.214" cy="5.214" r="5.214" transform="translate(6234.498 12399.493)" fill="#092e17"/><circle cx="5.214" cy="5.214" r="5.214" transform="translate(6234.498 12545.484)" fill="#092e17"/><circle cx="5.214" cy="5.214" r="5.214" transform="translate(6234.498 12308.249)" fill="#092e17"/><circle cx="5.214" cy="5.214" r="5.214" transform="translate(6234.498 12454.24)" fill="#092e17"/><circle cx="5.214" cy="5.214" r="5.214" transform="translate(6234.498 12381.244)" fill="#092e17"/><circle cx="5.214" cy="5.214" r="5.214" transform="translate(6234.498 12527.235)" fill="#092e17"/><circle cx="5.214" cy="5.214" r="5.214" transform="translate(6234.498 12344.748)" fill="#092e17"/><circle cx="5.214" cy="5.214" r="5.214" transform="translate(6234.498 12490.739)" fill="#092e17"/><circle cx="5.214" cy="5.214" r="5.214" transform="translate(6234.498 12417.743)" fill="#092e17"/><circle cx="5.214" cy="5.214" r="5.214" transform="translate(6234.498 12563.734)" fill="#092e17"/><circle cx="5.214" cy="5.214" r="5.214" transform="translate(6270.996 12290)" fill="#092e17"/><circle cx="5.214" cy="5.214" r="5.214" transform="translate(6270.996 12435.991)" fill="#092e17"/><circle cx="5.214" cy="5.214" r="5.214" transform="translate(6270.996 12362.995)" fill="#092e17"/><circle cx="5.214" cy="5.214" r="5.214" transform="translate(6270.996 12508.986)" fill="#092e17"/><circle cx="5.214" cy="5.214" r="5.214" transform="translate(6270.996 12326.498)" fill="#092e17"/><circle cx="5.214" cy="5.214" r="5.214" transform="translate(6270.996 12472.489)" fill="#092e17"/><circle cx="5.214" cy="5.214" r="5.214" transform="translate(6270.996 12399.493)" fill="#092e17"/><circle cx="5.214" cy="5.214" r="5.214" transform="translate(6270.996 12545.484)" fill="#092e17"/><circle cx="5.214" cy="5.214" r="5.214" transform="translate(6270.996 12308.249)" fill="#092e17"/><circle cx="5.214" cy="5.214" r="5.214" transform="translate(6270.996 12454.24)" fill="#092e17"/><circle cx="5.214" cy="5.214" r="5.214" transform="translate(6270.996 12381.244)" fill="#092e17"/><circle cx="5.214" cy="5.214" r="5.214" transform="translate(6270.996 12527.235)" fill="#092e17"/><circle cx="5.214" cy="5.214" r="5.214" transform="translate(6270.996 12344.748)" fill="#092e17"/><circle cx="5.214" cy="5.214" r="5.214" transform="translate(6270.996 12490.739)" fill="#092e17"/><circle cx="5.214" cy="5.214" r="5.214" transform="translate(6270.996 12417.743)" fill="#092e17"/><circle cx="5.214" cy="5.214" r="5.214" transform="translate(6270.996 12563.734)" fill="#092e17"/><circle cx="5.214" cy="5.214" r="5.214" transform="translate(6216.249 12290)" fill="#092e17"/><circle cx="5.214" cy="5.214" r="5.214" transform="translate(6216.249 12435.991)" fill="#092e17"/><circle cx="5.214" cy="5.214" r="5.214" transform="translate(6216.249 12362.995)" fill="#092e17"/><circle cx="5.214" cy="5.214" r="5.214" transform="translate(6216.249 12508.986)" fill="#092e17"/><circle cx="5.214" cy="5.214" r="5.214" transform="translate(6216.249 12326.498)" fill="#092e17"/><circle cx="5.214" cy="5.214" r="5.214" transform="translate(6216.249 12472.489)" fill="#092e17"/><circle cx="5.214" cy="5.214" r="5.214" transform="translate(6216.249 12399.493)" fill="#092e17"/><circle cx="5.214" cy="5.214" r="5.214" transform="translate(6216.249 12545.484)" fill="#092e17"/><circle cx="5.214" cy="5.214" r="5.214" transform="translate(6216.249 12308.249)" fill="#092e17"/><circle cx="5.214" cy="5.214" r="5.214" transform="translate(6216.249 12454.24)" fill="#092e17"/><circle cx="5.214" cy="5.214" r="5.214" transform="translate(6216.249 12381.244)" fill="#092e17"/><circle cx="5.214" cy="5.214" r="5.214" transform="translate(6216.249 12527.235)" fill="#092e17"/><circle cx="5.214" cy="5.214" r="5.214" transform="translate(6216.249 12344.748)" fill="#092e17"/><circle cx="5.214" cy="5.214" r="5.214" transform="translate(6216.249 12490.739)" fill="#092e17"/><circle cx="5.214" cy="5.214" r="5.214" transform="translate(6216.249 12417.743)" fill="#092e17"/><circle cx="5.214" cy="5.214" r="5.214" transform="translate(6216.249 12563.734)" fill="#092e17"/><circle cx="5.214" cy="5.214" r="5.214" transform="translate(6252.747 12290)" fill="#092e17"/><circle cx="5.214" cy="5.214" r="5.214" transform="translate(6252.747 12435.991)" fill="#092e17"/><circle cx="5.214" cy="5.214" r="5.214" transform="translate(6252.747 12362.995)" fill="#092e17"/><circle cx="5.214" cy="5.214" r="5.214" transform="translate(6252.747 12508.986)" fill="#092e17"/><circle cx="5.214" cy="5.214" r="5.214" transform="translate(6252.747 12326.498)" fill="#092e17"/><circle cx="5.214" cy="5.214" r="5.214" transform="translate(6252.747 12472.489)" fill="#092e17"/><circle cx="5.214" cy="5.214" r="5.214" transform="translate(6252.747 12399.493)" fill="#092e17"/><circle cx="5.214" cy="5.214" r="5.214" transform="translate(6252.747 12545.484)" fill="#092e17"/><circle cx="5.214" cy="5.214" r="5.214" transform="translate(6252.747 12308.249)" fill="#092e17"/><circle cx="5.214" cy="5.214" r="5.214" transform="translate(6252.747 12454.24)" fill="#092e17"/><circle cx="5.214" cy="5.214" r="5.214" transform="translate(6252.747 12381.244)" fill="#092e17"/><circle cx="5.214" cy="5.214" r="5.214" transform="translate(6252.747 12527.235)" fill="#092e17"/><circle cx="5.214" cy="5.214" r="5.214" transform="translate(6252.747 12344.748)" fill="#092e17"/><circle cx="5.214" cy="5.214" r="5.214" transform="translate(6252.747 12490.739)" fill="#092e17"/><circle cx="5.214" cy="5.214" r="5.214" transform="translate(6252.747 12417.743)" fill="#092e17"/><circle cx="5.214" cy="5.214" r="5.214" transform="translate(6252.747 12563.734)" fill="#092e17"/><circle cx="5.214" cy="5.214" r="5.214" transform="translate(6289.245 12290)" fill="#092e17"/><circle cx="5.214" cy="5.214" r="5.214" transform="translate(6289.245 12435.991)" fill="#092e17"/><circle cx="5.214" cy="5.214" r="5.214" transform="translate(6289.245 12362.995)" fill="#092e17"/><circle cx="5.214" cy="5.214" r="5.214" transform="translate(6289.245 12508.986)" fill="#092e17"/><circle cx="5.214" cy="5.214" r="5.214" transform="translate(6289.245 12326.498)" fill="#092e17"/><circle cx="5.214" cy="5.214" r="5.214" transform="translate(6289.245 12472.489)" fill="#092e17"/><circle cx="5.214" cy="5.214" r="5.214" transform="translate(6289.245 12399.493)" fill="#092e17"/><circle cx="5.214" cy="5.214" r="5.214" transform="translate(6289.245 12545.484)" fill="#092e17"/><circle cx="5.214" cy="5.214" r="5.214" transform="translate(6289.245 12308.249)" fill="#092e17"/><circle cx="5.214" cy="5.214" r="5.214" transform="translate(6289.245 12454.24)" fill="#092e17"/><circle cx="5.214" cy="5.214" r="5.214" transform="translate(6289.245 12381.244)" fill="#092e17"/><circle cx="5.214" cy="5.214" r="5.214" transform="translate(6289.245 12527.235)" fill="#092e17"/><circle cx="5.214" cy="5.214" r="5.214" transform="translate(6289.245 12344.748)" fill="#092e17"/><circle cx="5.214" cy="5.214" r="5.214" transform="translate(6289.245 12490.739)" fill="#092e17"/><circle cx="5.214" cy="5.214" r="5.214" transform="translate(6289.245 12417.743)" fill="#092e17"/><circle cx="5.214" cy="5.214" r="5.214" transform="translate(6289.245 12563.734)" fill="#092e17"/></g><ellipse cx="110.239" cy="109.842" rx="110.239" ry="109.842" transform="translate(202.424 92.127)" fill="#007841"/><g transform="translate(-23.5 304)" fill="none" stroke="#fff" stroke-width="5"><rect width="47" height="127" stroke="none"/><rect x="2.5" y="2.5" width="42" height="122" fill="none"/></g></g></svg>