<?xml version="1.0" encoding="utf-8"?>
<!-- Generator: Adobe Illustrator 23.0.3, SVG Export Plug-In . SVG Version: 6.00 Build 0)  -->
<svg version="1.1" id="Camada_1" xmlns="http://www.w3.org/2000/svg" xmlns:xlink="http://www.w3.org/1999/xlink" x="0px" y="0px"
	 viewBox="0 0 1366 722.1" style="enable-background:new 0 0 1366 722.1;" xml:space="preserve">
<style type="text/css">
	.st0{fill:none;stroke:#FFFFFF;stroke-miterlimit:10;}
	.st1{fill:none;stroke:#FFFFFF;stroke-width:5;}
	.st2{fill:#004425;}
</style>
<g transform="translate(195 257.49)">
	<ellipse class="st0" cx="420.1" cy="365.5" rx="67.9" ry="67.7"/>
	<ellipse class="st1" cx="420.1" cy="365.5" rx="66.7" ry="66.5"/>
</g>
<ellipse class="st2" cx="-159.7" cy="303.4" rx="225.6" ry="223.5"/>
<g transform="translate(-75.366 8.745)">
	<g transform="translate(0.09 -11)">
		<circle class="st2" cx="1418" cy="109.6" r="5"/>
		<circle class="st2" cx="1392.7" cy="109.6" r="5"/>
		<circle class="st2" cx="1367.3" cy="109.6" r="5"/>
		<circle class="st2" cx="1342" cy="109.6" r="5"/>
		<circle class="st2" cx="1418" cy="7.3" r="5"/>
		<circle class="st2" cx="1392.7" cy="7.3" r="5"/>
		<circle class="st2" cx="1367.3" cy="7.3" r="5"/>
		<circle class="st2" cx="1342" cy="7.3" r="5"/>
		<circle class="st2" cx="1418" cy="58.4" r="5"/>
		<circle class="st2" cx="1392.7" cy="58.4" r="5"/>
		<circle class="st2" cx="1367.3" cy="58.4" r="5"/>
		<circle class="st2" cx="1342" cy="58.4" r="5"/>
		<circle class="st2" cx="1418" cy="84" r="5"/>
		<circle class="st2" cx="1392.7" cy="84" r="5"/>
		<circle class="st2" cx="1367.3" cy="84" r="5"/>
		<circle class="st2" cx="1342" cy="84" r="5"/>
		<circle class="st2" cx="1418" cy="32.9" r="5"/>
		<circle class="st2" cx="1392.7" cy="32.9" r="5"/>
		<circle class="st2" cx="1367.3" cy="32.9" r="5"/>
		<circle class="st2" cx="1342" cy="32.9" r="5"/>
		<g transform="translate(196.412)">
			<circle class="st2" cx="1221.6" cy="237.3" r="5"/>
			<circle class="st2" cx="1196.3" cy="237.3" r="5"/>
			<circle class="st2" cx="1170.9" cy="237.3" r="5"/>
			<circle class="st2" cx="1145.6" cy="237.3" r="5"/>
			<circle class="st2" cx="1221.6" cy="135" r="5"/>
			<circle class="st2" cx="1196.3" cy="135" r="5"/>
			<circle class="st2" cx="1170.9" cy="135" r="5"/>
			<circle class="st2" cx="1145.6" cy="135" r="5"/>
			<circle class="st2" cx="1221.6" cy="186.1" r="5"/>
			<circle class="st2" cx="1196.3" cy="186.1" r="5"/>
			<circle class="st2" cx="1170.9" cy="186.1" r="5"/>
			<circle class="st2" cx="1145.6" cy="186.1" r="5"/>
			<circle class="st2" cx="1221.6" cy="211.7" r="5"/>
			<circle class="st2" cx="1196.3" cy="211.7" r="5"/>
			<circle class="st2" cx="1170.9" cy="211.7" r="5"/>
			<circle class="st2" cx="1145.6" cy="211.7" r="5"/>
			<circle class="st2" cx="1221.6" cy="160.5" r="5"/>
			<circle class="st2" cx="1196.3" cy="160.5" r="5"/>
			<circle class="st2" cx="1170.9" cy="160.5" r="5"/>
			<circle class="st2" cx="1145.6" cy="160.5" r="5"/>
		</g>
	</g>
</g>
</svg>
