<?xml version="1.0" encoding="utf-8"?>
<!-- Generator: Adobe Illustrator 23.0.3, SVG Export Plug-In . SVG Version: 6.00 Build 0)  -->
<svg version="1.1" id="Camada_1" xmlns="http://www.w3.org/2000/svg" xmlns:xlink="http://www.w3.org/1999/xlink" x="0px" y="0px"
	 viewBox="0 0 1366 519" style="enable-background:new 0 0 1366 519;" xml:space="preserve">
<style type="text/css">
	.st0{fill:#004425;}
	.st1{fill:#15A04B;}
	.st2{fill:#FFFFFF;}
</style>
<ellipse class="st0" cx="1335.5" cy="153.8" rx="153.3" ry="151.8"/>
<path class="st1" d="M64.2,217.7h-229.8V17.1H64.2V217.7z M-160.6,212.7H59.2V22.1h-219.8V212.7z"/>
<g transform="translate(-75.366 8.745)">
	<g transform="translate(0.09 -11)">
		<circle class="st2" cx="1308.7" cy="440.3" r="5"/>
		<circle class="st2" cx="1308.7" cy="465.6" r="5"/>
		<circle class="st2" cx="1308.7" cy="491" r="5"/>
		<circle class="st2" cx="1308.7" cy="516.3" r="5"/>
		<circle class="st2" cx="1206.4" cy="440.3" r="5"/>
		<circle class="st2" cx="1206.4" cy="465.6" r="5"/>
		<circle class="st2" cx="1206.4" cy="491" r="5"/>
		<circle class="st2" cx="1206.4" cy="516.3" r="5"/>
		<circle class="st2" cx="1257.5" cy="440.3" r="5"/>
		<circle class="st2" cx="1257.5" cy="465.6" r="5"/>
		<circle class="st2" cx="1257.5" cy="491" r="5"/>
		<circle class="st2" cx="1257.5" cy="516.3" r="5"/>
		<circle class="st2" cx="1283.1" cy="440.3" r="5"/>
		<circle class="st2" cx="1283.1" cy="465.6" r="5"/>
		<circle class="st2" cx="1283.1" cy="491" r="5"/>
		<circle class="st2" cx="1283.1" cy="516.3" r="5"/>
		<circle class="st2" cx="1232" cy="440.3" r="5"/>
		<circle class="st2" cx="1232" cy="465.6" r="5"/>
		<circle class="st2" cx="1232" cy="491" r="5"/>
		<circle class="st2" cx="1232" cy="516.3" r="5"/>
		<g transform="translate(196.412)">
			<circle class="st2" cx="1239.9" cy="440.3" r="5"/>
			<circle class="st2" cx="1239.9" cy="465.6" r="5"/>
			<circle class="st2" cx="1239.9" cy="491" r="5"/>
			<circle class="st2" cx="1239.9" cy="516.3" r="5"/>
			<circle class="st2" cx="1137.6" cy="440.3" r="5"/>
			<circle class="st2" cx="1137.6" cy="465.6" r="5"/>
			<circle class="st2" cx="1137.6" cy="491" r="5"/>
			<circle class="st2" cx="1137.6" cy="516.3" r="5"/>
			<circle class="st2" cx="1188.7" cy="440.3" r="5"/>
			<circle class="st2" cx="1188.7" cy="465.6" r="5"/>
			<circle class="st2" cx="1188.7" cy="491" r="5"/>
			<circle class="st2" cx="1188.7" cy="516.3" r="5"/>
			<circle class="st2" cx="1214.3" cy="440.3" r="5"/>
			<circle class="st2" cx="1214.3" cy="465.6" r="5"/>
			<circle class="st2" cx="1214.3" cy="491" r="5"/>
			<circle class="st2" cx="1214.3" cy="516.3" r="5"/>
			<circle class="st2" cx="1163.1" cy="440.3" r="5"/>
			<circle class="st2" cx="1163.1" cy="465.6" r="5"/>
			<circle class="st2" cx="1163.1" cy="491" r="5"/>
			<circle class="st2" cx="1163.1" cy="516.3" r="5"/>
		</g>
	</g>
</g>
</svg>
