<?xml version="1.0" encoding="utf-8"?>
<!-- Generator: Adobe Illustrator 23.0.3, SVG Export Plug-In . SVG Version: 6.00 Build 0)  -->
<svg version="1.1" id="Camada_1" xmlns="http://www.w3.org/2000/svg" xmlns:xlink="http://www.w3.org/1999/xlink" x="0px" y="0px"
	 viewBox="0 0 1366 722.1" style="enable-background:new 0 0 1366 722.1;" xml:space="preserve">
<style type="text/css">
	.st0{fill:#FFFFFF;}
	.st1{fill:#004425;}
</style>
<g transform="translate(195 257.49)">
	<path class="st0" d="M1136.4,58c-84.4,0-153-68.4-153-152.6c0-84.1,68.6-152.6,153-152.6s153,68.4,153,152.6
		C1289.4-10.4,1220.7,58,1136.4,58z M1136.4-242.1c-81.6,0-148,66.2-148,147.6S1054.7,53,1136.4,53s148-66.2,148-147.6
		S1218-242.1,1136.4-242.1z"/>
</g>
<ellipse class="st1" cx="990.8" cy="612.9" rx="99.8" ry="98.9"/>
<g transform="translate(-75.366 8.745)">
	<g transform="translate(0.09 -11)">
		<circle class="st1" cx="156.3" cy="388.6" r="5"/>
		<circle class="st1" cx="131" cy="388.6" r="5"/>
		<circle class="st1" cx="105.6" cy="388.6" r="5"/>
		<circle class="st1" cx="80.3" cy="388.6" r="5"/>
		<circle class="st1" cx="156.3" cy="286.3" r="5"/>
		<circle class="st1" cx="131" cy="286.3" r="5"/>
		<circle class="st1" cx="105.6" cy="286.3" r="5"/>
		<circle class="st1" cx="80.3" cy="286.3" r="5"/>
		<circle class="st1" cx="156.3" cy="337.4" r="5"/>
		<circle class="st1" cx="131" cy="337.4" r="5"/>
		<circle class="st1" cx="105.6" cy="337.4" r="5"/>
		<circle class="st1" cx="80.3" cy="337.4" r="5"/>
		<circle class="st1" cx="156.3" cy="363" r="5"/>
		<circle class="st1" cx="131" cy="363" r="5"/>
		<circle class="st1" cx="105.6" cy="363" r="5"/>
		<circle class="st1" cx="80.3" cy="363" r="5"/>
		<circle class="st1" cx="156.3" cy="311.9" r="5"/>
		<circle class="st1" cx="131" cy="311.9" r="5"/>
		<circle class="st1" cx="105.6" cy="311.9" r="5"/>
		<circle class="st1" cx="80.3" cy="311.9" r="5"/>
		<g transform="translate(196.412)">
			<circle class="st1" cx="-40.1" cy="516.3" r="5"/>
			<circle class="st1" cx="-65.4" cy="516.3" r="5"/>
			<circle class="st1" cx="-90.8" cy="516.3" r="5"/>
			<circle class="st1" cx="-116.1" cy="516.3" r="5"/>
			<circle class="st1" cx="-40.1" cy="414" r="5"/>
			<circle class="st1" cx="-65.4" cy="414" r="5"/>
			<circle class="st1" cx="-90.8" cy="414" r="5"/>
			<circle class="st1" cx="-116.1" cy="414" r="5"/>
			<circle class="st1" cx="-40.1" cy="465.1" r="5"/>
			<circle class="st1" cx="-65.4" cy="465.1" r="5"/>
			<circle class="st1" cx="-90.8" cy="465.1" r="5"/>
			<circle class="st1" cx="-116.1" cy="465.1" r="5"/>
			<circle class="st1" cx="-40.1" cy="490.7" r="5"/>
			<circle class="st1" cx="-65.4" cy="490.7" r="5"/>
			<circle class="st1" cx="-90.8" cy="490.7" r="5"/>
			<circle class="st1" cx="-116.1" cy="490.7" r="5"/>
			<circle class="st1" cx="-40.1" cy="439.5" r="5"/>
			<circle class="st1" cx="-65.4" cy="439.5" r="5"/>
			<circle class="st1" cx="-90.8" cy="439.5" r="5"/>
			<circle class="st1" cx="-116.1" cy="439.5" r="5"/>
		</g>
	</g>
</g>
</svg>
