<?xml version="1.0" encoding="utf-8"?>
<!-- Generator: Adobe Illustrator 23.0.3, SVG Export Plug-In . SVG Version: 6.00 Build 0)  -->
<svg version="1.1" id="Camada_1" xmlns="http://www.w3.org/2000/svg" xmlns:xlink="http://www.w3.org/1999/xlink" x="0px" y="0px"
	 viewBox="0 0 288 464" style="enable-background:new 0 0 288 464;" xml:space="preserve">
<style type="text/css">
	.st0{clip-path:url(#SVGID_2_);}
	.st1{fill:#092E17;}
	.st2{fill:#007841;}
	.st3{fill:none;}
	.st4{fill:none;stroke:#FFFFFF;stroke-width:5;}
</style>
<g>
	<defs>
		<rect id="SVGID_1_" width="288" height="464"/>
	</defs>
	<clipPath id="SVGID_2_">
		<use xlink:href="#SVGID_1_"  style="overflow:visible;"/>
	</clipPath>
	<g id="a" class="st0">
		<path class="st1" d="M-26.3,103.3c-25.4,0-46.1-20.3-46.1-45.4s20.7-45.4,46.1-45.4S19.8,33,19.8,58S-0.9,103.3-26.3,103.3z
			 M-26.3,17.6C-49,17.6-67.4,35.7-67.4,58S-49,98.3-26.3,98.3S14.8,80.2,14.8,58S-3.6,17.6-26.3,17.6z"/>
		<g transform="translate(-5964.608 -12142.823)">
			<circle class="st1" cx="6203.2" cy="12295.2" r="5.2"/>
			<circle class="st1" cx="6203.2" cy="12441.2" r="5.2"/>
			<circle class="st1" cx="6203.2" cy="12368.2" r="5.2"/>
			<circle class="st1" cx="6203.2" cy="12514.2" r="5.2"/>
			<circle class="st1" cx="6203.2" cy="12331.7" r="5.2"/>
			<circle class="st1" cx="6203.2" cy="12477.7" r="5.2"/>
			<circle class="st1" cx="6203.2" cy="12404.7" r="5.2"/>
			<circle class="st1" cx="6203.2" cy="12550.7" r="5.2"/>
			<circle class="st1" cx="6203.2" cy="12313.5" r="5.2"/>
			<circle class="st1" cx="6203.2" cy="12459.5" r="5.2"/>
			<circle class="st1" cx="6203.2" cy="12386.5" r="5.2"/>
			<circle class="st1" cx="6203.2" cy="12532.4" r="5.2"/>
			<circle class="st1" cx="6203.2" cy="12350" r="5.2"/>
			<circle class="st1" cx="6203.2" cy="12496" r="5.2"/>
			<circle class="st1" cx="6203.2" cy="12423" r="5.2"/>
			<circle class="st1" cx="6203.2" cy="12568.9" r="5.2"/>
			<circle class="st1" cx="6239.7" cy="12295.2" r="5.2"/>
			<circle class="st1" cx="6239.7" cy="12441.2" r="5.2"/>
			<circle class="st1" cx="6239.7" cy="12368.2" r="5.2"/>
			<circle class="st1" cx="6239.7" cy="12514.2" r="5.2"/>
			<circle class="st1" cx="6239.7" cy="12331.7" r="5.2"/>
			<circle class="st1" cx="6239.7" cy="12477.7" r="5.2"/>
			<circle class="st1" cx="6239.7" cy="12404.7" r="5.2"/>
			<circle class="st1" cx="6239.7" cy="12550.7" r="5.2"/>
			<circle class="st1" cx="6239.7" cy="12313.5" r="5.2"/>
			<circle class="st1" cx="6239.7" cy="12459.5" r="5.2"/>
			<circle class="st1" cx="6239.7" cy="12386.5" r="5.2"/>
			<circle class="st1" cx="6239.7" cy="12532.4" r="5.2"/>
			<circle class="st1" cx="6239.7" cy="12350" r="5.2"/>
			<circle class="st1" cx="6239.7" cy="12496" r="5.2"/>
			<circle class="st1" cx="6239.7" cy="12423" r="5.2"/>
			<circle class="st1" cx="6239.7" cy="12568.9" r="5.2"/>
			<circle class="st1" cx="6276.2" cy="12295.2" r="5.2"/>
			<circle class="st1" cx="6276.2" cy="12441.2" r="5.2"/>
			<circle class="st1" cx="6276.2" cy="12368.2" r="5.2"/>
			<circle class="st1" cx="6276.2" cy="12514.2" r="5.2"/>
			<circle class="st1" cx="6276.2" cy="12331.7" r="5.2"/>
			<circle class="st1" cx="6276.2" cy="12477.7" r="5.2"/>
			<circle class="st1" cx="6276.2" cy="12404.7" r="5.2"/>
			<circle class="st1" cx="6276.2" cy="12550.7" r="5.2"/>
			<circle class="st1" cx="6276.2" cy="12313.5" r="5.2"/>
			<circle class="st1" cx="6276.2" cy="12459.5" r="5.2"/>
			<circle class="st1" cx="6276.2" cy="12386.5" r="5.2"/>
			<circle class="st1" cx="6276.2" cy="12532.4" r="5.2"/>
			<circle class="st1" cx="6276.2" cy="12350" r="5.2"/>
			<circle class="st1" cx="6276.2" cy="12496" r="5.2"/>
			<circle class="st1" cx="6276.2" cy="12423" r="5.2"/>
			<circle class="st1" cx="6276.2" cy="12568.9" r="5.2"/>
			<circle class="st1" cx="6221.5" cy="12295.2" r="5.2"/>
			<circle class="st1" cx="6221.5" cy="12441.2" r="5.2"/>
			<circle class="st1" cx="6221.5" cy="12368.2" r="5.2"/>
			<circle class="st1" cx="6221.5" cy="12514.2" r="5.2"/>
			<circle class="st1" cx="6221.5" cy="12331.7" r="5.2"/>
			<circle class="st1" cx="6221.5" cy="12477.7" r="5.2"/>
			<circle class="st1" cx="6221.5" cy="12404.7" r="5.2"/>
			<circle class="st1" cx="6221.5" cy="12550.7" r="5.2"/>
			<circle class="st1" cx="6221.5" cy="12313.5" r="5.2"/>
			<circle class="st1" cx="6221.5" cy="12459.5" r="5.2"/>
			<circle class="st1" cx="6221.5" cy="12386.5" r="5.2"/>
			<circle class="st1" cx="6221.5" cy="12532.4" r="5.2"/>
			<circle class="st1" cx="6221.5" cy="12350" r="5.2"/>
			<circle class="st1" cx="6221.5" cy="12496" r="5.2"/>
			<circle class="st1" cx="6221.5" cy="12423" r="5.2"/>
			<circle class="st1" cx="6221.5" cy="12568.9" r="5.2"/>
			<circle class="st1" cx="6258" cy="12295.2" r="5.2"/>
			<circle class="st1" cx="6258" cy="12441.2" r="5.2"/>
			<circle class="st1" cx="6258" cy="12368.2" r="5.2"/>
			<circle class="st1" cx="6258" cy="12514.2" r="5.2"/>
			<circle class="st1" cx="6258" cy="12331.7" r="5.2"/>
			<circle class="st1" cx="6258" cy="12477.7" r="5.2"/>
			<circle class="st1" cx="6258" cy="12404.7" r="5.2"/>
			<circle class="st1" cx="6258" cy="12550.7" r="5.2"/>
			<circle class="st1" cx="6258" cy="12313.5" r="5.2"/>
			<circle class="st1" cx="6258" cy="12459.5" r="5.2"/>
			<circle class="st1" cx="6258" cy="12386.5" r="5.2"/>
			<circle class="st1" cx="6258" cy="12532.4" r="5.2"/>
			<circle class="st1" cx="6258" cy="12350" r="5.2"/>
			<circle class="st1" cx="6258" cy="12496" r="5.2"/>
			<circle class="st1" cx="6258" cy="12423" r="5.2"/>
			<circle class="st1" cx="6258" cy="12568.9" r="5.2"/>
			<circle class="st1" cx="6294.5" cy="12295.2" r="5.2"/>
			<circle class="st1" cx="6294.5" cy="12441.2" r="5.2"/>
			<circle class="st1" cx="6294.5" cy="12368.2" r="5.2"/>
			<circle class="st1" cx="6294.5" cy="12514.2" r="5.2"/>
			<circle class="st1" cx="6294.5" cy="12331.7" r="5.2"/>
			<circle class="st1" cx="6294.5" cy="12477.7" r="5.2"/>
			<circle class="st1" cx="6294.5" cy="12404.7" r="5.2"/>
			<circle class="st1" cx="6294.5" cy="12550.7" r="5.2"/>
			<circle class="st1" cx="6294.5" cy="12313.5" r="5.2"/>
			<circle class="st1" cx="6294.5" cy="12459.5" r="5.2"/>
			<circle class="st1" cx="6294.5" cy="12386.5" r="5.2"/>
			<circle class="st1" cx="6294.5" cy="12532.4" r="5.2"/>
			<circle class="st1" cx="6294.5" cy="12350" r="5.2"/>
			<circle class="st1" cx="6294.5" cy="12496" r="5.2"/>
			<circle class="st1" cx="6294.5" cy="12423" r="5.2"/>
			<circle class="st1" cx="6294.5" cy="12568.9" r="5.2"/>
		</g>
		<ellipse class="st2" cx="312.7" cy="202" rx="110.2" ry="109.8"/>
		<g transform="translate(-23.5 304)">
			<rect class="st3" width="47" height="127"/>
			<rect x="2.5" y="2.5" class="st4" width="74" height="122"/>
		</g>
	</g>
</g>
</svg>
