<svg xmlns="http://www.w3.org/2000/svg" xmlns:xlink="http://www.w3.org/1999/xlink" width="288" height="464" viewBox="0 0 288 464"><defs><clipPath id="b"><rect width="288" height="464"/></clipPath></defs><g id="a" clip-path="url(#b)"><g transform="translate(-40.412 352.618)" fill="none" stroke="#092e17" stroke-width="5"><ellipse cx="46.103" cy="45.356" rx="46.103" ry="45.356" stroke="none"/><ellipse cx="46.103" cy="45.356" rx="43.603" ry="42.856" fill="none"/></g><ellipse cx="55.239" cy="54.842" rx="55.239" ry="54.842" transform="translate(240.426 24.127)" fill="#007841"/><path d="M110,717.988,218.768,459.261,327.536,717.988Z" transform="translate(33.542 -243.26)" fill="none" stroke="#004425" stroke-width="5"/><g transform="translate(-40.066 74.177)"><circle cx="2.791" cy="2.791" r="2.791" fill="#007841"/><circle cx="2.791" cy="2.791" r="2.791" transform="translate(0 89.213)" fill="#007841"/><circle cx="2.791" cy="2.791" r="2.791" transform="translate(0 44.607)" fill="#007841"/><circle cx="2.791" cy="2.791" r="2.791" transform="translate(0 133.82)" fill="#007841"/><circle cx="2.791" cy="2.791" r="2.791" transform="translate(0 22.303)" fill="#007841"/><circle cx="2.791" cy="2.791" r="2.791" transform="translate(0 111.516)" fill="#007841"/><circle cx="2.791" cy="2.791" r="2.791" transform="translate(0 66.91)" fill="#007841"/><circle cx="2.791" cy="2.791" r="2.791" transform="translate(0 156.123)" fill="#007841"/><circle cx="2.791" cy="2.791" r="2.791" transform="translate(0 11.151)" fill="#007841"/><circle cx="2.791" cy="2.791" r="2.791" transform="translate(0 100.365)" fill="#007841"/><circle cx="2.791" cy="2.791" r="2.791" transform="translate(0 55.758)" fill="#007841"/><circle cx="2.791" cy="2.791" r="2.791" transform="translate(0 144.972)" fill="#007841"/><circle cx="2.791" cy="2.791" r="2.791" transform="translate(0 33.455)" fill="#007841"/><circle cx="2.791" cy="2.791" r="2.791" transform="translate(0 122.669)" fill="#007841"/><circle cx="2.791" cy="2.791" r="2.791" transform="translate(0 78.062)" fill="#007841"/><circle cx="2.791" cy="2.791" r="2.791" transform="translate(0 167.275)" fill="#007841"/><circle cx="2.791" cy="2.791" r="2.791" transform="translate(22.303)" fill="#007841"/><circle cx="2.791" cy="2.791" r="2.791" transform="translate(22.303 89.213)" fill="#007841"/><circle cx="2.791" cy="2.791" r="2.791" transform="translate(22.303 44.607)" fill="#007841"/><circle cx="2.791" cy="2.791" r="2.791" transform="translate(22.303 133.82)" fill="#007841"/><circle cx="2.791" cy="2.791" r="2.791" transform="translate(22.303 22.303)" fill="#007841"/><circle cx="2.791" cy="2.791" r="2.791" transform="translate(22.303 111.516)" fill="#007841"/><circle cx="2.791" cy="2.791" r="2.791" transform="translate(22.303 66.91)" fill="#007841"/><circle cx="2.791" cy="2.791" r="2.791" transform="translate(22.303 156.123)" fill="#007841"/><circle cx="2.791" cy="2.791" r="2.791" transform="translate(22.303 11.151)" fill="#007841"/><circle cx="2.791" cy="2.791" r="2.791" transform="translate(22.303 100.365)" fill="#007841"/><circle cx="2.791" cy="2.791" r="2.791" transform="translate(22.303 55.758)" fill="#007841"/><circle cx="2.791" cy="2.791" r="2.791" transform="translate(22.303 144.972)" fill="#007841"/><circle cx="2.791" cy="2.791" r="2.791" transform="translate(22.303 33.455)" fill="#007841"/><circle cx="2.791" cy="2.791" r="2.791" transform="translate(22.303 122.669)" fill="#007841"/><circle cx="2.791" cy="2.791" r="2.791" transform="translate(22.303 78.062)" fill="#007841"/><circle cx="2.791" cy="2.791" r="2.791" transform="translate(22.303 167.275)" fill="#007841"/><circle cx="2.791" cy="2.791" r="2.791" transform="translate(44.607)" fill="#007841"/><circle cx="2.791" cy="2.791" r="2.791" transform="translate(44.607 89.213)" fill="#007841"/><circle cx="2.791" cy="2.791" r="2.791" transform="translate(44.607 44.607)" fill="#007841"/><circle cx="2.791" cy="2.791" r="2.791" transform="translate(44.607 133.82)" fill="#007841"/><circle cx="2.791" cy="2.791" r="2.791" transform="translate(44.607 22.303)" fill="#007841"/><circle cx="2.791" cy="2.791" r="2.791" transform="translate(44.607 111.516)" fill="#007841"/><circle cx="2.791" cy="2.791" r="2.791" transform="translate(44.607 66.91)" fill="#007841"/><circle cx="2.791" cy="2.791" r="2.791" transform="translate(44.607 156.123)" fill="#007841"/><circle cx="2.791" cy="2.791" r="2.791" transform="translate(44.607 11.151)" fill="#007841"/><circle cx="2.791" cy="2.791" r="2.791" transform="translate(44.607 100.365)" fill="#007841"/><circle cx="2.791" cy="2.791" r="2.791" transform="translate(44.607 55.758)" fill="#007841"/><circle cx="2.791" cy="2.791" r="2.791" transform="translate(44.607 144.972)" fill="#007841"/><circle cx="2.791" cy="2.791" r="2.791" transform="translate(44.607 33.455)" fill="#007841"/><circle cx="2.791" cy="2.791" r="2.791" transform="translate(44.607 122.669)" fill="#007841"/><circle cx="2.791" cy="2.791" r="2.791" transform="translate(44.607 78.062)" fill="#007841"/><circle cx="2.791" cy="2.791" r="2.791" transform="translate(44.607 167.275)" fill="#007841"/><circle cx="2.791" cy="2.791" r="2.791" transform="translate(11.151)" fill="#007841"/><circle cx="2.791" cy="2.791" r="2.791" transform="translate(11.151 89.213)" fill="#007841"/><circle cx="2.791" cy="2.791" r="2.791" transform="translate(11.151 44.607)" fill="#007841"/><circle cx="2.791" cy="2.791" r="2.791" transform="translate(11.151 133.82)" fill="#007841"/><circle cx="2.791" cy="2.791" r="2.791" transform="translate(11.151 22.303)" fill="#007841"/><circle cx="2.791" cy="2.791" r="2.791" transform="translate(11.151 111.516)" fill="#007841"/><circle cx="2.791" cy="2.791" r="2.791" transform="translate(11.151 66.91)" fill="#007841"/><circle cx="2.791" cy="2.791" r="2.791" transform="translate(11.151 156.123)" fill="#007841"/><circle cx="2.791" cy="2.791" r="2.791" transform="translate(11.151 11.151)" fill="#007841"/><circle cx="2.791" cy="2.791" r="2.791" transform="translate(11.151 100.365)" fill="#007841"/><circle cx="2.791" cy="2.791" r="2.791" transform="translate(11.151 55.758)" fill="#007841"/><circle cx="2.791" cy="2.791" r="2.791" transform="translate(11.151 144.972)" fill="#007841"/><circle cx="2.791" cy="2.791" r="2.791" transform="translate(11.151 33.455)" fill="#007841"/><circle cx="2.791" cy="2.791" r="2.791" transform="translate(11.151 122.669)" fill="#007841"/><circle cx="2.791" cy="2.791" r="2.791" transform="translate(11.151 78.062)" fill="#007841"/><circle cx="2.791" cy="2.791" r="2.791" transform="translate(11.151 167.275)" fill="#007841"/><circle cx="2.791" cy="2.791" r="2.791" transform="translate(33.455)" fill="#007841"/><circle cx="2.791" cy="2.791" r="2.791" transform="translate(33.455 89.213)" fill="#007841"/><circle cx="2.791" cy="2.791" r="2.791" transform="translate(33.455 44.607)" fill="#007841"/><circle cx="2.791" cy="2.791" r="2.791" transform="translate(33.455 133.82)" fill="#007841"/><circle cx="2.791" cy="2.791" r="2.791" transform="translate(33.455 22.303)" fill="#007841"/><circle cx="2.791" cy="2.791" r="2.791" transform="translate(33.455 111.516)" fill="#007841"/><circle cx="2.791" cy="2.791" r="2.791" transform="translate(33.455 66.91)" fill="#007841"/><circle cx="2.791" cy="2.791" r="2.791" transform="translate(33.455 156.123)" fill="#007841"/><circle cx="2.791" cy="2.791" r="2.791" transform="translate(33.455 11.151)" fill="#007841"/><circle cx="2.791" cy="2.791" r="2.791" transform="translate(33.455 100.365)" fill="#007841"/><circle cx="2.791" cy="2.791" r="2.791" transform="translate(33.455 55.758)" fill="#007841"/><circle cx="2.791" cy="2.791" r="2.791" transform="translate(33.455 144.972)" fill="#007841"/><circle cx="2.791" cy="2.791" r="2.791" transform="translate(33.455 33.455)" fill="#007841"/><circle cx="2.791" cy="2.791" r="2.791" transform="translate(33.455 122.669)" fill="#007841"/><circle cx="2.791" cy="2.791" r="2.791" transform="translate(33.455 78.062)" fill="#007841"/><circle cx="2.791" cy="2.791" r="2.791" transform="translate(33.455 167.275)" fill="#007841"/><circle cx="2.791" cy="2.791" r="2.791" transform="translate(55.758)" fill="#007841"/><circle cx="2.791" cy="2.791" r="2.791" transform="translate(55.758 89.213)" fill="#007841"/><circle cx="2.791" cy="2.791" r="2.791" transform="translate(55.758 44.607)" fill="#007841"/><circle cx="2.791" cy="2.791" r="2.791" transform="translate(55.758 133.82)" fill="#007841"/><circle cx="2.791" cy="2.791" r="2.791" transform="translate(55.758 22.303)" fill="#007841"/><circle cx="2.791" cy="2.791" r="2.791" transform="translate(55.758 111.516)" fill="#007841"/><circle cx="2.791" cy="2.791" r="2.791" transform="translate(55.758 66.91)" fill="#007841"/><circle cx="2.791" cy="2.791" r="2.791" transform="translate(55.758 156.123)" fill="#007841"/><circle cx="2.791" cy="2.791" r="2.791" transform="translate(55.758 11.151)" fill="#007841"/><circle cx="2.791" cy="2.791" r="2.791" transform="translate(55.758 100.365)" fill="#007841"/><circle cx="2.791" cy="2.791" r="2.791" transform="translate(55.758 55.758)" fill="#007841"/><circle cx="2.791" cy="2.791" r="2.791" transform="translate(55.758 144.972)" fill="#007841"/><circle cx="2.791" cy="2.791" r="2.791" transform="translate(55.758 33.455)" fill="#007841"/><circle cx="2.791" cy="2.791" r="2.791" transform="translate(55.758 122.669)" fill="#007841"/><circle cx="2.791" cy="2.791" r="2.791" transform="translate(55.758 78.062)" fill="#007841"/><circle cx="2.791" cy="2.791" r="2.791" transform="translate(55.758 167.275)" fill="#007841"/></g></g></svg>